# xmcd
#
# Track frame offsets: 
#        150
#        49071
#        102356
#        160692
#        199979
#
# Disc length: 3072 seconds
#
# Revision: 1
# Processed by: cddbd v1.5.2PL0 Copyright (c) Steve Scherf et al.
# Submitted via: ExactAudioCopy v0.99pb4
#
DISCID=3c0bfe05
DTITLE=Llewellyn and Juliana - Crystal Child
DYEAR=2005
DGENRE=New Age
TTITLE0=Crystal Child
TTITLE1=Indigo Eyes
TTITLE2=Opening Hearts
TTITLE3=A Glimpse Of Paradise
TTITLE4=Crystal Child (Vocal Version)
EXTD=YEAR: 2005
EXTT0=
EXTT1=
EXTT2=
EXTT3=
EXTT4=
PLAYORDER=
